<?xml version="1.0" encoding="UTF-8"?> <svg xmlns="http://www.w3.org/2000/svg" width="715" height="232" viewBox="0 0 715 232" fill="none"> <g clip-path="url(#clip0)"> <path d="M434.428 49.8526C434.487 48.4525 435.088 47.1294 436.104 46.1596C437.121 45.1899 438.474 44.6484 439.882 44.6484C441.29 44.6484 442.644 45.1899 443.66 46.1596C444.677 47.1294 445.277 48.4525 445.337 49.8526C445.277 51.2527 444.677 52.5759 443.66 53.5456C442.644 54.5154 441.29 55.0568 439.882 55.0568C438.474 55.0568 437.121 54.5154 436.104 53.5456C435.088 52.5759 434.487 51.2527 434.428 49.8526V49.8526ZM435.195 61.8601H444.521V108.266H435.195V61.8601Z" fill="black"></path> <path d="M464.971 108.282H455.354V46.582H479.707C492.462 46.582 500.408 53.9296 500.408 65.4344C500.408 73.7681 495.94 80.5259 488.382 83.0493L502.302 108.282H491.18L478.551 84.5478H464.951L464.971 108.282ZM464.971 76.8135H478.804C486.235 76.8135 490.529 72.753 490.529 65.6954C490.529 58.8119 485.983 54.6257 478.541 54.6257H464.941L464.971 76.8135Z" fill="black"></path> <path d="M508.312 49.8591C508.313 48.4181 508.888 47.0361 509.912 46.0172C510.935 44.9982 512.324 44.4258 513.772 44.4258C515.22 44.4258 516.608 44.9982 517.632 46.0172C518.656 47.0361 519.231 48.4181 519.231 49.8591C519.231 51.3001 518.656 52.6821 517.632 53.7011C516.608 54.72 515.22 55.2925 513.772 55.2925C512.324 55.2925 510.935 54.72 509.912 53.7011C508.888 52.6821 508.312 51.3001 508.312 49.8591V49.8591ZM509.09 61.828H518.415V108.234H509.09V61.828Z" fill="black"></path> <path d="M526.188 85.0032C526.188 70.7238 534.182 61.3653 545.781 61.3653C552.474 61.3653 557.808 64.401 560.469 69.5249H560.683V43.7891H569.96V108.274H560.945V100.404H560.77C558.021 105.663 552.698 108.738 545.859 108.738C534.182 108.728 526.188 99.3697 526.188 85.0032ZM535.727 85.0032C535.727 94.6711 540.662 100.83 548.229 100.83C555.797 100.83 560.732 94.5357 560.732 85.0709C560.732 75.606 555.7 69.2542 548.229 69.2542C540.759 69.2542 535.727 75.4707 535.727 85.0709V85.0032Z" fill="black"></path> <path d="M579.422 49.8526C579.481 48.4525 580.082 47.1294 581.098 46.1596C582.115 45.1899 583.468 44.6484 584.876 44.6484C586.285 44.6484 587.638 45.1899 588.655 46.1596C589.671 47.1294 590.272 48.4525 590.331 49.8526C590.272 51.2527 589.671 52.5759 588.655 53.5456C587.638 54.5154 586.285 55.0568 584.876 55.0568C583.468 55.0568 582.115 54.5154 581.098 53.5456C580.082 52.5759 579.481 51.2527 579.422 49.8526V49.8526ZM580.189 61.8601H589.515V108.266H580.189V61.8601Z" fill="black"></path> <path d="M640.032 108.277H631.144V100.32H630.969C628.268 105.831 623.022 108.789 615.892 108.789C605.712 108.789 599.184 102.244 599.184 91.5998V61.8711H608.509V89.9079C608.509 97.0428 612.327 100.852 619.069 100.852C626.034 100.852 630.726 96.018 630.726 88.6608V61.8711H640.042L640.032 108.277Z" fill="black"></path> <path d="M649.574 61.8753H658.463V69.7063H658.618C660.765 64.4856 665.787 61.3242 671.888 61.3242C678.377 61.3242 683.059 64.5726 684.944 70.3443H685.158C687.606 64.7466 693.104 61.3242 699.729 61.3242C708.919 61.3242 714.932 67.357 714.932 76.6285V108.281H705.655V78.8521C705.655 72.7807 702.352 69.2809 696.552 69.2809C690.753 69.2809 686.838 73.5057 686.838 79.4515V108.281H677.687V78.0883C677.687 72.6936 674.21 69.2809 668.75 69.2809C662.999 69.2809 658.871 73.7281 658.871 79.7899V108.281H649.555L649.574 61.8753Z" fill="black"></path> <path d="M435.318 139.227H444.207V147.097H444.382C446.529 141.876 451.551 138.715 457.651 138.715C464.141 138.715 468.823 141.963 470.707 147.735H470.921C473.379 142.137 478.877 138.715 485.493 138.715C494.682 138.715 500.695 144.748 500.695 154.019V185.633H491.418V156.194C491.418 150.123 488.116 146.623 482.316 146.623C476.517 146.623 472.602 150.848 472.602 156.794V185.633H463.451V155.431C463.451 150.036 459.973 146.623 454.514 146.623C448.763 146.623 444.634 151.061 444.634 157.132V185.633H435.318V139.227Z" fill="black"></path> <path d="M507.965 162.433C507.965 147.854 516.601 138.621 530.045 138.621C543.49 138.621 552.077 147.815 552.077 162.433C552.077 177.051 543.529 186.206 530.045 186.206C516.562 186.206 507.965 177.022 507.965 162.433ZM542.635 162.433C542.635 152.301 537.953 146.317 530.007 146.317C522.06 146.317 517.378 152.349 517.378 162.433C517.378 172.517 522.099 178.511 530.007 178.511C537.914 178.511 542.635 172.526 542.635 162.433V162.433Z" fill="black"></path> <path d="M569.135 177.738H568.921V185.627H559.945V121.133H569.261V146.869H569.426C572.263 141.658 577.596 138.709 584.212 138.709C595.976 138.709 603.708 147.98 603.708 162.386C603.708 176.791 595.937 186.072 584.124 186.072C577.344 186.072 572.02 183.085 569.135 177.738ZM569.261 162.424C569.261 171.879 574.293 178.241 581.812 178.241C589.331 178.241 594.217 172.044 594.217 162.424C594.217 152.805 589.36 146.608 581.812 146.608C574.264 146.608 569.261 152.979 569.261 162.424Z" fill="black"></path> <path d="M610.717 127.203C610.717 125.762 611.292 124.38 612.316 123.361C613.34 122.342 614.728 121.77 616.176 121.77C617.624 121.77 619.013 122.342 620.037 123.361C621.06 124.38 621.636 125.762 621.636 127.203C621.636 128.644 621.06 130.026 620.037 131.045C619.013 132.064 617.624 132.636 616.176 132.636C614.728 132.636 613.34 132.064 612.316 131.045C611.292 130.026 610.717 128.644 610.717 127.203V127.203ZM611.494 139.172H620.82V185.578H611.494V139.172Z" fill="black"></path> <path d="M631.092 121.133H640.408V185.627H631.092V121.133Z" fill="black"></path> <path d="M690.202 172.01C688.861 180.353 680.663 186.163 670.181 186.163C656.649 186.163 648.227 177.095 648.227 162.564C648.227 148.033 656.736 138.578 669.792 138.578C682.596 138.578 690.668 147.434 690.668 161.491V164.749H657.659V165.329C657.659 173.363 662.72 178.671 670.375 178.671C675.786 178.671 680.041 176.099 681.323 172.039L690.202 172.01ZM657.659 158.165H681.333C681.119 150.934 676.476 146.148 669.734 146.148C662.992 146.148 658.193 151.021 657.659 158.165Z" fill="black"></path> <path d="M132.095 77.3394C144.972 77.3394 155.41 66.9511 155.41 54.1365C155.41 41.3219 144.972 30.9336 132.095 30.9336C119.219 30.9336 108.781 41.3219 108.781 54.1365C108.781 66.9511 119.219 77.3394 132.095 77.3394Z" fill="black"></path> <path d="M194.254 77.3394C207.13 77.3394 217.568 66.9511 217.568 54.1365C217.568 41.3219 207.13 30.9336 194.254 30.9336C181.378 30.9336 170.939 41.3219 170.939 54.1365C170.939 66.9511 181.378 77.3394 194.254 77.3394Z" fill="black"></path> <path d="M256.459 40.2051C259.224 40.2108 261.925 41.0319 264.221 42.5647C266.518 44.0975 268.306 46.2732 269.361 48.8171C270.415 51.3609 270.689 54.1586 270.147 56.857C269.604 59.5554 268.271 62.0333 266.314 63.9778C264.358 65.9223 261.866 67.2461 259.154 67.782C256.442 68.3179 253.631 68.0419 251.077 66.9888C248.522 65.9358 246.338 64.1529 244.801 61.8654C243.264 59.5778 242.443 56.8883 242.441 54.1365C242.441 52.3054 242.804 50.4922 243.509 48.8007C244.213 47.1092 245.246 45.5726 246.548 44.2787C247.85 42.9848 249.395 41.959 251.096 41.26C252.797 40.561 254.619 40.2025 256.459 40.2051V40.2051ZM256.459 30.9336C251.848 30.9336 247.34 32.2944 243.506 34.844C239.672 37.3936 236.684 41.0174 234.919 45.2571C233.155 49.4969 232.693 54.1622 233.593 58.6632C234.492 63.1641 236.713 67.2985 239.973 70.5434C243.234 73.7884 247.388 75.9983 251.91 76.8936C256.433 77.7889 261.121 77.3294 265.381 75.5732C269.641 73.817 273.282 70.8431 275.844 67.0274C278.406 63.2117 279.773 58.7256 279.773 54.1365C279.773 47.9827 277.317 42.081 272.945 37.7296C268.572 33.3782 262.642 30.9336 256.459 30.9336V30.9336Z" fill="black"></path> <path d="M132.095 139.195C144.972 139.195 155.41 128.807 155.41 115.992C155.41 103.177 144.972 92.7891 132.095 92.7891C119.219 92.7891 108.781 103.177 108.781 115.992C108.781 128.807 119.219 139.195 132.095 139.195Z" fill="black"></path> <path d="M194.289 102.082C197.054 102.086 199.757 102.905 202.054 104.437C204.352 105.969 206.142 108.144 207.198 110.687C208.254 113.231 208.529 116.029 207.988 118.728C207.446 121.427 206.114 123.906 204.157 125.851C202.201 127.797 199.71 129.121 196.997 129.658C194.285 130.195 191.474 129.919 188.919 128.867C186.363 127.814 184.179 126.031 182.642 123.743C181.104 121.455 180.283 118.766 180.281 116.013C180.281 114.183 180.643 112.371 181.347 110.68C182.051 108.989 183.083 107.453 184.384 106.159C185.685 104.865 187.23 103.839 188.929 103.14C190.628 102.44 192.45 102.081 194.289 102.082V102.082ZM194.289 92.8008C189.678 92.8008 185.17 94.1616 181.336 96.7112C177.502 99.2607 174.514 102.885 172.749 107.124C170.985 111.364 170.523 116.029 171.423 120.53C172.322 125.031 174.543 129.166 177.803 132.411C181.064 135.656 185.218 137.865 189.741 138.761C194.263 139.656 198.951 139.197 203.211 137.44C207.471 135.684 211.112 132.71 213.674 128.895C216.236 125.079 217.603 120.593 217.603 116.004C217.603 109.85 215.147 103.948 210.775 99.5968C206.402 95.2454 200.472 92.8008 194.289 92.8008V92.8008Z" fill="black"></path> <path d="M256.424 139.195C269.3 139.195 279.738 128.807 279.738 115.992C279.738 103.177 269.3 92.7891 256.424 92.7891C243.548 92.7891 233.109 103.177 233.109 115.992C233.109 128.807 243.548 139.195 256.424 139.195Z" fill="black"></path> <path d="M132.113 163.949C134.88 163.949 137.584 164.766 139.885 166.295C142.185 167.825 143.978 169.999 145.037 172.543C146.096 175.087 146.373 177.886 145.833 180.587C145.293 183.287 143.961 185.768 142.005 187.715C140.048 189.662 137.556 190.988 134.842 191.525C132.129 192.062 129.316 191.787 126.76 190.733C124.204 189.679 122.019 187.895 120.482 185.605C118.945 183.316 118.125 180.624 118.125 177.871C118.13 174.18 119.605 170.642 122.227 168.032C124.85 165.423 128.405 163.954 132.113 163.949V163.949ZM132.113 154.668C127.502 154.668 122.994 156.029 119.16 158.578C115.326 161.128 112.338 164.752 110.574 168.991C108.809 173.231 108.347 177.897 109.247 182.398C110.146 186.898 112.367 191.033 115.627 194.278C118.888 197.523 123.042 199.733 127.565 200.628C132.087 201.523 136.775 201.064 141.035 199.308C145.295 197.551 148.936 194.577 151.498 190.762C154.06 186.946 155.427 182.46 155.427 177.871C155.427 171.717 152.971 165.815 148.599 161.464C144.227 157.113 138.296 154.668 132.113 154.668Z" fill="black"></path> <path d="M194.289 163.949C197.054 163.953 199.756 164.772 202.053 166.303C204.351 167.835 206.141 170.009 207.197 172.552C208.253 175.095 208.529 177.893 207.988 180.592C207.448 183.29 206.116 185.769 204.161 187.715C202.206 189.661 199.715 190.986 197.003 191.524C194.292 192.062 191.481 191.788 188.925 190.737C186.37 189.685 184.185 187.904 182.646 185.617C181.108 183.331 180.285 180.642 180.281 177.89C180.281 174.193 181.757 170.647 184.384 168.032C187.011 165.418 190.574 163.949 194.289 163.949V163.949ZM194.289 154.668C189.678 154.668 185.17 156.029 181.336 158.578C177.502 161.128 174.514 164.752 172.749 168.991C170.985 173.231 170.523 177.897 171.423 182.398C172.322 186.898 174.543 191.033 177.803 194.278C181.064 197.523 185.218 199.733 189.741 200.628C194.263 201.523 198.951 201.064 203.211 199.308C207.471 197.551 211.112 194.577 213.674 190.762C216.236 186.946 217.603 182.46 217.603 177.871C217.603 171.717 215.147 165.815 210.775 161.464C206.402 157.113 200.472 154.668 194.289 154.668V154.668Z" fill="black"></path> <path d="M256.459 163.949C259.226 163.949 261.93 164.766 264.23 166.295C266.531 167.825 268.324 169.999 269.383 172.543C270.441 175.087 270.718 177.886 270.179 180.587C269.639 183.287 268.307 185.768 266.35 187.715C264.394 189.662 261.901 190.988 259.188 191.525C256.474 192.062 253.662 191.787 251.106 190.733C248.55 189.679 246.365 187.895 244.828 185.605C243.291 183.316 242.47 180.624 242.47 177.871C242.473 174.179 243.947 170.64 246.57 168.03C249.193 165.419 252.75 163.952 256.459 163.949V163.949ZM256.459 154.668C251.848 154.668 247.34 156.029 243.506 158.578C239.672 161.128 236.684 164.752 234.919 168.991C233.155 173.231 232.693 177.897 233.593 182.398C234.492 186.898 236.713 191.033 239.973 194.278C243.234 197.523 247.388 199.733 251.91 200.628C256.433 201.523 261.121 201.064 265.381 199.308C269.641 197.551 273.282 194.577 275.844 190.762C278.406 186.946 279.773 182.46 279.773 177.871C279.773 171.717 277.317 165.815 272.945 161.464C268.572 157.113 262.642 154.668 256.459 154.668Z" fill="black"></path> <path d="M360.565 232.029H27.9577C20.5402 232.021 13.4291 229.083 8.18685 223.861C2.9446 218.638 -4.02147e-06 211.558 0 204.176V27.8242C0.00771464 20.4471 2.95573 13.3744 8.19714 8.15799C13.4386 2.94161 20.5452 0.00768452 27.9577 6.73165e-06H360.565C367.986 -0.00512427 375.105 2.92315 380.357 8.14091C385.609 13.3587 388.563 20.4387 388.571 27.8242V204.176C388.571 207.835 387.847 211.459 386.439 214.839C385.031 218.22 382.968 221.291 380.367 223.878C377.766 226.464 374.679 228.516 371.281 229.914C367.883 231.313 364.242 232.032 360.565 232.029V232.029ZM27.9577 10.828C23.4292 10.8306 19.0869 12.6221 15.8848 15.8089C12.6826 18.9957 10.8826 23.3173 10.88 27.8242V204.176C10.8851 208.682 12.686 213.002 15.8876 216.188C19.0892 219.375 23.43 221.167 27.9577 221.172H360.565C365.093 221.167 369.433 219.375 372.635 216.188C375.836 213.002 377.637 208.682 377.643 204.176V27.8242C377.637 23.3181 375.836 18.998 372.635 15.8117C369.433 12.6254 365.093 10.8331 360.565 10.828H27.9577Z" fill="black"></path> </g> <defs> <clipPath id="clip0"> <rect width="715" height="232" fill="white"></rect> </clipPath> </defs> </svg> 